<?xml version="1.0" encoding="UTF-8" standalone="no"?>
<svg
   class="logo"
   width="100"
   height="32"
   version="1.1"
   id="svg1"
   sodipodi:docname="ibm_lgbtq.svg"
   inkscape:version="1.4.3 (0d15f75, 2025-12-25)"
   xmlns:inkscape="http://www.inkscape.org/namespaces/inkscape"
   xmlns:sodipodi="http://sodipodi.sourceforge.net/DTD/sodipodi-0.dtd"
   xmlns="http://www.w3.org/2000/svg"
   xmlns:svg="http://www.w3.org/2000/svg">
  <defs
     id="defs1" />
  <sodipodi:namedview
     id="namedview1"
     pagecolor="#ffffff"
     bordercolor="#000000"
     borderopacity="0.25"
     inkscape:showpageshadow="2"
     inkscape:pageopacity="0.0"
     inkscape:pagecheckerboard="0"
     inkscape:deskcolor="#d1d1d1"
     inkscape:zoom="8.31"
     inkscape:cx="43.922984"
     inkscape:cy="20.758123"
     inkscape:window-width="1558"
     inkscape:window-height="842"
     inkscape:window-x="165"
     inkscape:window-y="1140"
     inkscape:window-maximized="0"
     inkscape:current-layer="svg1" />
  <g
     id="g8">
    <path
       d="M 0,32 H 15.689 V 29.962 H 0 Z M 17.93,29.963 V 32 h 16.504 c 2.030377,0.0027 3.994998,-0.719651 5.54,-2.037 z M 44.826,32 h 11.21 v -2.038 h -11.21 z m 24.662,0 h 11.21 v -2.038 h -11.21 z m -6.731,0 0.72,-2.038 h -1.432 z"
       id="path1"
       style="display:inline;fill:#732982;fill-opacity:1"
       sodipodi:nodetypes="cccccccccccccccccccccccc" />
    <path
       d="M 0,2.049 H 15.689 V 0.011 H 0 Z m 39.974,0 C 38.428998,0.73165132 36.464377,0.00928073 34.434,0.012 H 17.93 V 2.049 Z M 57.457,0 H 44.825 v 2.038 h 13.34 z M 68.06,0 67.354,2.038 H 80.698 V 0 Z"
       id="path2"
       style="display:inline;fill:#f5a9b8;fill-opacity:1"
       sodipodi:nodetypes="cccccccccccccccccccc" />
    <path
       d="M 0,6.327 H 15.689 V 4.29 H 0 Z m 42.693,0 C 42.499981,5.6137453 42.214208,4.9289001 41.843,4.29 H 17.93 V 6.327 Z M 65.868,6.318 h 14.83 V 4.28 H 66.576 Z M 58.947,4.28 H 44.826 v 2.038 h 14.828 z"
       id="path3"
       style="display:inline;fill:#e40303;fill-opacity:1"
       sodipodi:nodetypes="cccccccccccccccccccc" />
    <path
       d="m 4.482,10.606 h 6.724 V 8.568 H 4.482 Z m 17.93,0 h 6.724 V 8.568 h -6.724 z m 13.041,0 h 7.29 C 42.90672,9.9390012 42.989979,9.2547972 42.991,8.568 H 35.453 Z M 76.213,8.56 H 65.091 l -0.707,2.038 h 11.83 z m -26.904,2.038 h 11.83 L 60.432,8.56 H 49.309 Z"
       id="path4"
       style="display:inline;fill:#ff8c00;fill-opacity:1"
       sodipodi:nodetypes="ccccccccccccccccccccccccc" />
    <path
       d="m 4.483,14.885 h 6.724 V 12.848 H 4.483 Z m 17.93,-2.037 v 2.036 h 17.786 c 0.648594,-0.591263 1.202997,-1.278197 1.644,-2.037 h -19.43 z m 47.075,2.031 h 6.726 V 12.84 H 63.606 l -0.707,2.038 h 5.903 l 0.686,-1.94 z M 61.916,12.84 H 49.31 v 2.039 h 6.726 v -1.94 l 0.686,1.94 h 5.903 z"
       id="path5"
       style="display:inline;fill:#ffed00;fill-opacity:1"
       sodipodi:nodetypes="ccccccccccccccccccccccccccc" />
    <path
       d="m 4.483,19.164 h 6.724 V 17.126 H 4.483 Z M 40.124,17.126 H 22.412 v 2.038 H 41.77 c -0.441327,-0.759156 -0.996062,-1.44642 -1.645,-2.038 m 9.184,2.033 h 6.727 v -2.038 h -6.727 z m 20.178,0 h 6.726 v -2.038 h -6.726 z m -11.255,0 h 9.06 l 0.719,-2.038 h -10.5 z"
       id="path6"
       style="display:inline;fill:#008026;fill-opacity:1"
       sodipodi:nodetypes="ccccccccccccccccccccccccc" />
    <path
       d="m 4.483,23.442 h 6.724 V 21.405 H 4.483 Z m 17.929,0 h 6.724 v -2.037 h -6.724 z m 13.041,-2.037 v 2.037 h 7.538 c 0,-0.703 -0.09,-1.384 -0.248,-2.037 z m 13.856,2.034 h 6.727 v -2.038 h -6.727 z m 20.179,0 h 6.726 v -2.038 h -6.726 z m -9.745,0.001 h 6.037 l 0.72,-2.039 h -7.476 z"
       id="path7"
       style="display:inline;fill:#5bcefa;fill-opacity:1"
       sodipodi:nodetypes="cccccccccccccccccccccccccccccc" />
    <path
       d="M 0,27.721 H 15.689 V 25.683 H 0 Z m 17.93,-2.038 v 2.038 h 23.914 c 0.370386,-0.639661 0.65611,-1.324726 0.85,-2.038 z m 26.896,2.037 h 11.21 v -2.038 h -11.21 z m 24.662,0 h 11.21 v -2.038 h -11.21 z m -8.234,0 h 3.015 l 0.72,-2.038 h -4.455 z"
       id="path8"
       style="display:inline;fill:#004cff;fill-opacity:1"
       sodipodi:nodetypes="ccccccccccccccccccccccccc" />
  </g>
</svg>
